<mxfile host="app.diagrams.net" modified="2023-08-23T21:25:58.582Z" agent="Mozilla/5.0 (Macintosh; Intel Mac OS X 10_15_7) AppleWebKit/537.36 (KHTML, like Gecko) Chrome/115.0.0.0 Safari/537.36" version="21.6.9" etag="nH4soqH_zfGzXwKbVc8F" type="github">
  <diagram name="Page-1" id="SPhyj3L3b0rct_0f5d-x">
    <mxGraphModel>
      <root>
        <mxCell id="0" />
        <mxCell id="1" parent="0" />
      </root>
    </mxGraphModel>
  </diagram>
</mxfile>
